<svg width="7018" height="10563" viewBox="0 0 7018 10563" fill="none" xmlns="http://www.w3.org/2000/svg">
<g filter="url(#filter0_f_28_24)">
<path d="M5324 8283.5L5014.5 10262.5H1556L3548 8792L3176.5 7403L3381 5465.5L2439 2786L887 5023L2248 2403.5L1836 1491L300 814L2248 1314.5L3381 814L2439 1829.5L3548 3998L4161 3124.5L3661 2609.5L4161 2786L4058 1829.5L4529 300L4647 1829.5L5935.5 1591.5L4647 2079.5L4529 4522.5L5014.5 4302L5324 2786V4140L6718 5328.5L4529 5023L5014.5 6366L5324 8283.5Z" fill="#4A2E1A"/>
</g>
<g filter="url(#filter1_f_28_24)">
<path d="M3907.97 1904L4132.82 1952.43C4672.72 2068.71 5016.14 2600.65 4899.85 3140.56L4851.43 3365.4L4626.58 3316.97C4086.68 3200.69 3743.26 2668.75 3859.55 2128.84L3907.97 1904Z" fill="#D89CD9"/>
</g>
<g filter="url(#filter2_f_28_24)">
<path d="M5156.11 4526L5357.29 4637.46C5840.38 4905.12 6015.02 5513.73 5747.36 5996.82L5635.89 6198L5434.71 6086.53C4951.62 5818.87 4776.98 5210.27 5044.64 4727.18L5156.11 4526Z" fill="#D89CD9"/>
</g>
<g filter="url(#filter3_f_28_24)">
<path d="M1549.13 3969.47L1741.88 4094.97C2204.7 4396.31 2335.61 5015.8 2034.26 5478.62L1908.77 5671.37L1716.02 5545.87C1253.2 5244.53 1122.29 4625.04 1423.64 4162.21L1549.13 3969.47Z" fill="#D89CD9"/>
</g>
<g filter="url(#filter4_f_28_24)">
<path d="M1298.31 973L1432.67 1159.68C1755.29 1607.93 1653.45 2232.85 1205.2 2555.48L1018.52 2689.83L884.163 2503.16C561.539 2054.9 663.382 1429.98 1111.64 1107.36L1298.31 973Z" fill="#D89CD9"/>
</g>
<g filter="url(#filter5_f_28_24)">
<path d="M4369.99 1776L4459.96 1987.67C4676 2495.95 4439.1 3083.12 3930.82 3299.17L3719.15 3389.14L3629.18 3177.46C3413.14 2669.19 3650.04 2082.01 4158.31 1865.97L4369.99 1776Z" fill="#D89CD9"/>
</g>
<g filter="url(#filter6_f_28_24)">
<path d="M5317.75 4498L5393.3 4715.24C5574.72 5236.87 5298.91 5806.81 4777.28 5988.23L4560.04 6063.78L4484.49 5846.55C4303.07 5324.91 4578.87 4754.97 5100.51 4573.55L5317.75 4498Z" fill="#D89CD9"/>
</g>
<g filter="url(#filter7_f_28_24)">
<path d="M1536.17 3973L1659.52 4167.13C1955.69 4633.28 1817.9 5251.27 1351.75 5547.45L1157.62 5670.79L1034.28 5476.66C738.1 5010.51 875.891 4392.52 1342.04 4096.34L1536.17 3973Z" fill="#D89CD9"/>
</g>
<g filter="url(#filter8_f_28_24)">
<path d="M1347.69 1050L1565.21 1124.74C2087.52 1304.21 2365.45 1873.11 2185.99 2395.42L2111.25 2612.94L1893.73 2538.2C1371.42 2358.73 1093.49 1789.83 1272.95 1267.52L1347.69 1050Z" fill="#D89CD9"/>
</g>
<defs>
<filter id="filter0_f_28_24" x="0" y="0" width="7018" height="10562.5" filterUnits="userSpaceOnUse" color-interpolation-filters="sRGB">
<feFlood flood-opacity="0" result="BackgroundImageFix"/>
<feBlend mode="normal" in="SourceGraphic" in2="BackgroundImageFix" result="shape"/>
<feGaussianBlur stdDeviation="150" result="effect1_foregroundBlur_28_24"/>
</filter>
<filter id="filter1_f_28_24" x="3536.92" y="1604" width="1685.56" height="2061.4" filterUnits="userSpaceOnUse" color-interpolation-filters="sRGB">
<feFlood flood-opacity="0" result="BackgroundImageFix"/>
<feBlend mode="normal" in="SourceGraphic" in2="BackgroundImageFix" result="shape"/>
<feGaussianBlur stdDeviation="150" result="effect1_foregroundBlur_28_24"/>
</filter>
<filter id="filter2_f_28_24" x="4619.17" y="4226" width="1553.66" height="2272.01" filterUnits="userSpaceOnUse" color-interpolation-filters="sRGB">
<feFlood flood-opacity="0" result="BackgroundImageFix"/>
<feBlend mode="normal" in="SourceGraphic" in2="BackgroundImageFix" result="shape"/>
<feGaussianBlur stdDeviation="150" result="effect1_foregroundBlur_28_24"/>
</filter>
<filter id="filter3_f_28_24" x="961.542" y="3669.47" width="1534.82" height="2301.9" filterUnits="userSpaceOnUse" color-interpolation-filters="sRGB">
<feFlood flood-opacity="0" result="BackgroundImageFix"/>
<feBlend mode="normal" in="SourceGraphic" in2="BackgroundImageFix" result="shape"/>
<feGaussianBlur stdDeviation="150" result="effect1_foregroundBlur_28_24"/>
</filter>
<filter id="filter4_f_28_24" x="395.725" y="673" width="1525.38" height="2316.83" filterUnits="userSpaceOnUse" color-interpolation-filters="sRGB">
<feFlood flood-opacity="0" result="BackgroundImageFix"/>
<feBlend mode="normal" in="SourceGraphic" in2="BackgroundImageFix" result="shape"/>
<feGaussianBlur stdDeviation="150" result="effect1_foregroundBlur_28_24"/>
</filter>
<filter id="filter5_f_28_24" x="3249.23" y="1476" width="1590.67" height="2213.14" filterUnits="userSpaceOnUse" color-interpolation-filters="sRGB">
<feFlood flood-opacity="0" result="BackgroundImageFix"/>
<feBlend mode="normal" in="SourceGraphic" in2="BackgroundImageFix" result="shape"/>
<feGaussianBlur stdDeviation="150" result="effect1_foregroundBlur_28_24"/>
</filter>
<filter id="filter6_f_28_24" x="4128.72" y="4198" width="1620.34" height="2165.79" filterUnits="userSpaceOnUse" color-interpolation-filters="sRGB">
<feFlood flood-opacity="0" result="BackgroundImageFix"/>
<feBlend mode="normal" in="SourceGraphic" in2="BackgroundImageFix" result="shape"/>
<feGaussianBlur stdDeviation="150" result="effect1_foregroundBlur_28_24"/>
</filter>
<filter id="filter7_f_28_24" x="578.193" y="3673" width="1537.41" height="2297.79" filterUnits="userSpaceOnUse" color-interpolation-filters="sRGB">
<feFlood flood-opacity="0" result="BackgroundImageFix"/>
<feBlend mode="normal" in="SourceGraphic" in2="BackgroundImageFix" result="shape"/>
<feGaussianBlur stdDeviation="150" result="effect1_foregroundBlur_28_24"/>
</filter>
<filter id="filter8_f_28_24" x="918.412" y="750" width="1622.12" height="2162.94" filterUnits="userSpaceOnUse" color-interpolation-filters="sRGB">
<feFlood flood-opacity="0" result="BackgroundImageFix"/>
<feBlend mode="normal" in="SourceGraphic" in2="BackgroundImageFix" result="shape"/>
<feGaussianBlur stdDeviation="150" result="effect1_foregroundBlur_28_24"/>
</filter>
</defs>
</svg>
