<svg width="1938" height="1938" viewBox="0 0 1938 1938" fill="none" xmlns="http://www.w3.org/2000/svg">
<path d="M1068.99 113.745C1464.59 159.501 1778.49 473.398 1824.25 868.995H1938V1069H1824.25C1778.49 1464.6 1464.6 1778.5 1068.99 1824.25V1938H868.994V1824.25C473.393 1778.5 159.493 1464.6 113.739 1069H0V868.995H113.74C159.498 473.398 473.396 159.501 868.994 113.745V0H1068.99V113.745ZM315.511 1069C358.759 1353.99 583.996 1579.23 868.994 1622.48V1143.4C838.089 1125.64 812.352 1099.9 794.594 1069H315.511ZM1143.39 1069C1125.64 1099.9 1099.9 1125.64 1068.99 1143.4V1622.48C1353.99 1579.23 1579.23 1353.99 1622.48 1069H1143.39ZM968.994 968C968.812 968 968.695 968.01 968.632 968.017C968.572 968.052 968.444 968.136 968.287 968.293C968.13 968.45 968.046 968.578 968.011 968.638C968.004 968.701 967.994 968.818 967.994 969C967.994 969.181 968.004 969.298 968.011 969.361C968.046 969.421 968.129 969.549 968.287 969.707C968.444 969.864 968.572 969.947 968.632 969.982C968.695 969.99 968.812 970 968.994 970C969.176 970 969.292 969.99 969.355 969.982C969.415 969.947 969.544 969.865 969.701 969.707C969.859 969.55 969.941 969.421 969.977 969.361C969.984 969.298 969.994 969.182 969.994 969C969.994 968.818 969.984 968.7 969.977 968.638C969.941 968.578 969.858 968.45 969.701 968.293C969.543 968.135 969.415 968.052 969.355 968.017C969.292 968.01 969.176 968 968.994 968ZM1068.99 794.602C1099.9 812.359 1125.63 838.094 1143.39 868.995H1622.48C1579.22 584.001 1353.99 358.766 1068.99 315.517V794.602ZM868.994 315.517C583.999 358.766 358.764 584.001 315.512 868.995H794.599C812.357 838.094 838.092 812.359 868.994 794.602V315.517Z" fill="#D44B4B"/>
</svg>
