<svg width="5643" height="10250" viewBox="0 0 5643 10250" fill="none" xmlns="http://www.w3.org/2000/svg">
<g filter="url(#filter0_f_7_5)">
<path d="M3832.5 8492.5L3758.5 9949.5H1183L926.5 8264L1477.5 5622.5L2125 4710L1703.5 3665.5L300 3802.5L1183 2941.5L926.5 1622.5L580 501L1879.5 300L1183 769.5L1477.5 2556.5L2802 4209.5L2905 2811.5L1703.5 1766.5L2802 2016.5L2721 1122L3832.5 501L3103.5 1516.5L4347.5 2016.5H3273V4209.5L4347.5 3137.5L3994 4209.5H5343L3994 4487.5L3273 4710L2545 7109.5L3832.5 8492.5Z" fill="#1E3228"/>
</g>
<defs>
<filter id="filter0_f_7_5" x="0" y="0" width="5643" height="10249.5" filterUnits="userSpaceOnUse" color-interpolation-filters="sRGB">
<feFlood flood-opacity="0" result="BackgroundImageFix"/>
<feBlend mode="normal" in="SourceGraphic" in2="BackgroundImageFix" result="shape"/>
<feGaussianBlur stdDeviation="150" result="effect1_foregroundBlur_7_5"/>
</filter>
</defs>
</svg>
